<svg xmlns="http://www.w3.org/2000/svg" width="712" height="156" viewBox="0 0 712 156" role="img" aria-labelledby="title desc">
  <title id="title">Calvin Diao</title>
  <desc id="desc">Fine pixel lettering in Catppuccin Latte, inside a terminal window.</desc>
  <defs><clipPath id="window"><rect width="712" height="156" rx="10"/></clipPath></defs>
  <g clip-path="url(#window)">
    <rect width="712" height="156" fill="#eff1f5"/>
    <rect width="712" height="34" fill="#e6e9ef"/>
    <path d="M0 34.5H712" stroke="#ccd0da"/>
    <rect x="18" y="14" width="6" height="6" fill="#fe640b"/>
    <rect x="30" y="14" width="6" height="6" fill="#1e66f5"/>
    <rect x="42" y="14" width="6" height="6" fill="#8839ef"/>
    <text x="62" y="21" font-family="ui-monospace, SFMono-Regular, Menlo, Consolas, monospace" font-size="12" fill="#5c5f77">calvindiao / README</text>
    <g fill="#4c4f69"><path transform="translate(30 116) scale(0.08 -0.08)" d="M91 97L28 97L28 664L91 664L91 726L153 726L153 787L349 787L349 726L410 726L410 664L472 664L472 529L400 529L400 653L338 653L338 715L163 715L163 653L102 653L102 107L163 107L163 46L338 46L338 107L400 107L400 293L472 293L472 97L410 97L410 35L349 35L349 -28L153 -28L153 35L91 35Z"/><path transform="translate(70 116) scale(0.08 -0.08)" d="M28 231L91 231L91 293L338 293L338 468L102 468L102 344L28 344L28 478L91 478L91 540L349 540L349 478L410 478L410 46L472 46L472 -28L400 -28L400 35L287 35L287 -28L91 -28L91 35L28 35ZM276 46L276 107L338 107L338 220L102 220L102 46Z"/><path transform="translate(110 116) scale(0.08 -0.08)" d="M213 726L286 726L286 -28L213 -28Z"/><path transform="translate(150 116) scale(0.08 -0.08)" d="M153 220L91 220L91 344L28 344L28 540L102 540L102 355L163 355L163 231L225 231L225 107L276 107L276 231L338 231L338 355L400 355L400 540L472 540L472 344L410 344L410 220L349 220L349 97L287 97L287 -28L214 -28L214 97L153 97Z"/><path transform="translate(190 116) scale(0.08 -0.08)" d="M213 726L286 726L286 591L213 591ZM213 540L286 540L286 -28L213 -28Z"/><path transform="translate(230 116) scale(0.08 -0.08)" d="M28 540L102 540L102 478L153 478L153 540L349 540L349 478L410 478L410 417L472 417L472 -28L400 -28L400 406L338 406L338 468L163 468L163 406L102 406L102 -28L28 -28Z"/><path transform="translate(270 116) scale(0.08 -0.08)" d=""/><path transform="translate(310 116) scale(0.08 -0.08)" d="M28 787L349 787L349 726L410 726L410 664L472 664L472 97L410 97L410 35L349 35L349 -28L28 -28ZM338 46L338 107L400 107L400 653L338 653L338 715L102 715L102 46Z"/><path transform="translate(350 116) scale(0.08 -0.08)" d="M213 726L286 726L286 591L213 591ZM213 540L286 540L286 -28L213 -28Z"/><path transform="translate(390 116) scale(0.08 -0.08)" d="M28 231L91 231L91 293L338 293L338 468L102 468L102 344L28 344L28 478L91 478L91 540L349 540L349 478L410 478L410 46L472 46L472 -28L400 -28L400 35L287 35L287 -28L91 -28L91 35L28 35ZM276 46L276 107L338 107L338 220L102 220L102 46Z"/><path transform="translate(430 116) scale(0.08 -0.08)" d="M91 97L28 97L28 417L91 417L91 478L153 478L153 540L349 540L349 478L410 478L410 417L472 417L472 97L410 97L410 35L349 35L349 -28L153 -28L153 35L91 35ZM163 107L163 46L338 46L338 107L400 107L400 406L338 406L338 468L163 468L163 406L102 406L102 107Z"/></g>
    <rect x="477" y="110" width="14" height="6" fill="#8839ef"/>
    <g fill="#ccd0da">
      <rect x="624" y="65" width="6" height="6"/><rect x="634" y="65" width="6" height="6"/>
      <rect x="644" y="65" width="6" height="6"/><rect x="654" y="65" width="6" height="6"/>
      <rect x="624" y="75" width="6" height="6"/><rect x="654" y="75" width="6" height="6"/>
      <rect x="624" y="85" width="6" height="6"/><rect x="654" y="85" width="6" height="6"/>
      <rect x="624" y="95" width="6" height="6"/><rect x="634" y="95" width="6" height="6"/>
      <rect x="644" y="95" width="6" height="6"/><rect x="654" y="95" width="6" height="6"/>
    </g>
    <path d="M632 76H636V80H640V84H636V88H632" fill="none" stroke="#1e66f5" stroke-width="2"/>
    <rect x="642" y="87" width="7" height="2" fill="#8839ef"/>
    <rect x="30" y="140" width="42" height="3" fill="#8839ef"/>
    <rect x="76" y="140" width="25" height="3" fill="#1e66f5"/>
    <rect x="105" y="140" width="10" height="3" fill="#fe640b"/>
  </g>
</svg>
