<svg xmlns="http://www.w3.org/2000/svg" width="720" height="212" viewBox="0 0 720 212" role="img" aria-label="Mini-game: snake">
<title>Mini-game: snake</title><desc>Mini-game: a snake eats the contribution graph. Score: 407 contributions in the last year.</desc>
<path fill="#ccd0da" d="M8 4h708v4h-708zm-4 4h716v200h-716zm4 200h708v4h-708z"/><path fill="#acb0be" d="M4 0h708v4h-708zm-4 4h8v4h-8zm708 0h8v4h-8zm-708 4h4v192h-4zm712 0h4v192h-4zm-712 192h8v4h-8zm708 0h8v4h-8zm-704 4h708v4h-708z"/><path fill="#4c4f69" d="M8 4h700v4h-700zm-4 4h708v40h-708z"/><path fill="#bcc0cc" d="M4 48h708v4h-708z"/><path fill="#ffffff" d="M4 52h4v148h-4z"/><path fill="#eff1f5" d="M8 52h700v148h-700z"/><path fill="#ccd0da" d="M708 52h4v148h-4zm-700 148h700v4h-700z"/><path fill="#f9e2af" d="M16 12h4v4h-4zm16 0h4v4h-4zm8 0h12v4h-12zm16 0h4v4h-4zm16 0h4v12h-4zm8 0h12v4h-12zm36 0h16v4h-16zm24 0h12v4h-12zm20 0h4v4h-4zm16 0h4v4h-4zm8 0h20v4h-20zm52 0h16v4h-16zm20 0h4v4h-4zm16 0h4v12h-4zm12 0h12v4h-12zm20 0h4v12h-4zm16 0h4v4h-4zm8 0h20v4h-20zm-312 4h8v4h-8zm12 0h8v4h-8zm16 0h4v20h-4zm12 0h8v4h-8zm28 0h4v20h-4zm28 0h4v20h-4zm24 0h4v8h-4zm16 0h4v8h-4zm8 0h8v4h-8zm12 0h8v4h-8zm12 0h4v8h-4zm48 0h4v8h-4zm24 0h8v4h-8zm24 0h4v8h-4zm16 0h4v8h-4zm20 0h4v4h-4zm12 0h4v8h-4zm-312 4h4v20h-4zm8 0h4v8h-4zm8 0h4v20h-4zm24 0h4v20h-4zm8 0h4v4h-4zm96 0h4v20h-4zm8 0h4v8h-4zm8 0h4v20h-4zm32 0h4v4h-4zm48 0h4v20h-4zm8 0h4v4h-4zm48 0h4v4h-4zm-244 4h8v4h-8zm28 0h12v4h-12zm24 0h12v4h-12zm16 0h20v4h-20zm48 0h16v4h-16zm52 0h12v4h-12zm32 0h8v4h-8zm12 0h20v4h-20zm24 0h8v4h-8zm24 0h16v4h-16zm-256 4h4v12h-4zm56 0h4v8h-4zm8 0h4v12h-4zm16 0h4v12h-4zm32 0h4v8h-4zm64 0h4v8h-4zm24 0h4v12h-4zm8 0h4v12h-4zm16 0h4v12h-4zm8 0h4v12h-4zm8 0h4v4h-4zm16 0h4v8h-4zm-120 4h4v4h-4zm108 0h4v4h-4zm-276 4h12v4h-12zm40 0h12v4h-12zm36 0h12v4h-12zm68 0h20v4h-20zm48 0h16v4h-16zm88 0h4v4h-4zm8 0h20v4h-20z"/><path fill="#f9e2af" d="M504 12h16v4h-16zm24 0h16v4h-16zm24 0h12v4h-12zm20 0h16v4h-16zm24 0h20v4h-20zm52 0h4v4h-4zm16 0h12v4h-12zm20 0h20v4h-20zm-184 4h4v8h-4zm24 0h4v20h-4zm24 0h4v20h-4zm16 0h4v20h-4zm8 0h4v8h-4zm16 0h4v8h-4zm8 0h4v8h-4zm48 0h8v4h-8zm16 0h4v12h-4zm16 0h4v4h-4zm24 0h4v4h-4zm-60 4h4v4h-4zm8 0h4v8h-4zm24 0h8v4h-8zm24 0h4v4h-4zm-192 4h12v4h-12zm68 0h16v4h-16zm24 0h16v4h-16zm40 0h4v4h-4zm32 0h4v4h-4zm8 0h4v12h-4zm16 0h4v4h-4zm-176 4h4v8h-4zm56 0h4v12h-4zm8 0h4v4h-4zm16 0h4v8h-4zm40 0h20v4h-20zm24 0h8v4h-8zm28 0h4v12h-4zm-104 4h4v4h-4zm64 0h4v8h-4zm12 0h4v4h-4zm-160 4h16v4h-16zm28 0h16v4h-16zm24 0h12v4h-12zm36 0h4v4h-4zm8 0h20v4h-20zm68 0h12v4h-12z"/><path fill="#bcc0cc" d="M14 62h692v2h-692zm-2 2h4v2h-4zm692 0h4v2h-4zm-692 2h2v124h-2zm694 0h2v124h-2zm-694 124h4v2h-4zm692 0h4v2h-4zm-690 2h692v2h-692z"/><path fill="#e6e9ef" d="M16 64h688v2h-688zm-2 2h692v124h-692zm2 124h688v2h-688z"/><svg x="16" y="68" width="688" height="120" viewBox="-6 -20 860 150"><desc>Generated with https://github.com/Platane/snk</desc><style>:root{--cb:#1b1f230a;--cs:#4c4f69;--ce:#ccd0da;--c0:#ccd0da;--c1:#c7b299;--c2:#c49e6f;--c3:#c18d4a;--c4:#bf802e}.c{shape-rendering:geometricPrecision;fill:var(--ce);stroke-width:1px;stroke:var(--cb);animation:none 44300ms linear infinite;width:12px;height:12px}@keyframes c0{46.94%{fill:var(--c1)}46.96%,100%{fill:var(--ce)}}.c.c0{fill:var(--c1);animation-name:c0}@keyframes c1{0.67%{fill:var(--c1)}0.69%,100%{fill:var(--ce)}}.c.c1{fill:var(--c1);animation-name:c1}@keyframes c2{0.89%{fill:var(--c1)}0.91%,100%{fill:var(--ce)}}.c.c2{fill:var(--c1);animation-name:c2}@keyframes c3{1.12%{fill:var(--c1)}1.14%,100%{fill:var(--ce)}}.c.c3{fill:var(--c1);animation-name:c3}@keyframes c4{1.57%{fill:var(--c1)}1.59%,100%{fill:var(--ce)}}.c.c4{fill:var(--c1);animation-name:c4}@keyframes c5{46.49%{fill:var(--c1)}46.51%,100%{fill:var(--ce)}}.c.c5{fill:var(--c1);animation-name:c5}@keyframes c6{2.7%{fill:var(--c1)}2.72%,100%{fill:var(--ce)}}.c.c6{fill:var(--c1);animation-name:c6}@keyframes c7{2.25%{fill:var(--c1)}2.27%,100%{fill:var(--ce)}}.c.c7{fill:var(--c1);animation-name:c7}@keyframes c8{3.83%{fill:var(--c1)}3.85%,100%{fill:var(--ce)}}.c.c8{fill:var(--c1);animation-name:c8}@keyframes c9{50.55%{fill:var(--c2)}50.57%,100%{fill:var(--ce)}}.c.c9{fill:var(--c2);animation-name:c9}@keyframes ca{6.08%{fill:var(--c1)}6.1%,100%{fill:var(--ce)}}.c.ca{fill:var(--c1);animation-name:ca}@keyframes cb{6.31%{fill:var(--c1)}6.33%,100%{fill:var(--ce)}}.c.cb{fill:var(--c1);animation-name:cb}@keyframes cc{48.97%{fill:var(--c2)}48.99%,100%{fill:var(--ce)}}.c.cc{fill:var(--c2);animation-name:cc}@keyframes cd{97.51%{fill:var(--c4)}97.53%,100%{fill:var(--ce)}}.c.cd{fill:var(--c4);animation-name:cd}@keyframes ce{5.63%{fill:var(--c1)}5.65%,100%{fill:var(--ce)}}.c.ce{fill:var(--c1);animation-name:ce}@keyframes cf{5.41%{fill:var(--c1)}5.43%,100%{fill:var(--ce)}}.c.cf{fill:var(--c1);animation-name:cf}@keyframes cg{6.76%{fill:var(--c1)}6.78%,100%{fill:var(--ce)}}.c.cg{fill:var(--c1);animation-name:cg}@keyframes ch{4.96%{fill:var(--c1)}4.98%,100%{fill:var(--ce)}}.c.ch{fill:var(--c1);animation-name:ch}@keyframes ci{10.15%{fill:var(--c1)}10.17%,100%{fill:var(--ce)}}.c.ci{fill:var(--c1);animation-name:ci}@keyframes cj{7.66%{fill:var(--c1)}7.68%,100%{fill:var(--ce)}}.c.cj{fill:var(--c1);animation-name:cj}@keyframes ck{8.12%{fill:var(--c1)}8.14%,100%{fill:var(--ce)}}.c.ck{fill:var(--c1);animation-name:ck}@keyframes cl{9.7%{fill:var(--c1)}9.72%,100%{fill:var(--ce)}}.c.cl{fill:var(--c1);animation-name:cl}@keyframes cm{53.49%{fill:var(--c2)}53.51%,100%{fill:var(--ce)}}.c.cm{fill:var(--c2);animation-name:cm}@keyframes cn{12.18%{fill:var(--c1)}12.2%,100%{fill:var(--ce)}}.c.cn{fill:var(--c1);animation-name:cn}@keyframes co{12.63%{fill:var(--c1)}12.65%,100%{fill:var(--ce)}}.c.co{fill:var(--c1);animation-name:co}@keyframes cp{73.35%{fill:var(--c3)}73.37%,100%{fill:var(--ce)}}.c.cp{fill:var(--c3);animation-name:cp}@keyframes cq{92.99%{fill:var(--c4)}93.01%,100%{fill:var(--ce)}}.c.cq{fill:var(--c4);animation-name:cq}@keyframes cr{14.21%{fill:var(--c1)}14.23%,100%{fill:var(--ce)}}.c.cr{fill:var(--c1);animation-name:cr}@keyframes cs{94.35%{fill:var(--c4)}94.37%,100%{fill:var(--ce)}}.c.cs{fill:var(--c4);animation-name:cs}@keyframes ct{13.31%{fill:var(--c1)}13.33%,100%{fill:var(--ce)}}.c.ct{fill:var(--c1);animation-name:ct}@keyframes cu{15.57%{fill:var(--c1)}15.59%,100%{fill:var(--ce)}}.c.cu{fill:var(--c1);animation-name:cu}@keyframes cv{17.37%{fill:var(--c1)}17.39%,100%{fill:var(--ce)}}.c.cv{fill:var(--c1);animation-name:cv}@keyframes cw{17.6%{fill:var(--c1)}17.62%,100%{fill:var(--ce)}}.c.cw{fill:var(--c1);animation-name:cw}@keyframes cx{29.79%{fill:var(--c1)}29.81%,100%{fill:var(--ce)}}.c.cx{fill:var(--c1);animation-name:cx}@keyframes cy{18.5%{fill:var(--c1)}18.52%,100%{fill:var(--ce)}}.c.cy{fill:var(--c1);animation-name:cy}@keyframes cz{18.95%{fill:var(--c1)}18.97%,100%{fill:var(--ce)}}.c.cz{fill:var(--c1);animation-name:cz}@keyframes c10{30.24%{fill:var(--c1)}30.26%,100%{fill:var(--ce)}}.c.c10{fill:var(--c1);animation-name:c10}@keyframes c11{18.05%{fill:var(--c1)}18.07%,100%{fill:var(--ce)}}.c.c11{fill:var(--c1);animation-name:c11}@keyframes c12{19.4%{fill:var(--c1)}19.42%,100%{fill:var(--ce)}}.c.c12{fill:var(--c1);animation-name:c12}@keyframes c13{19.85%{fill:var(--c1)}19.87%,100%{fill:var(--ce)}}.c.c13{fill:var(--c1);animation-name:c13}@keyframes c14{27.98%{fill:var(--c1)}28%,100%{fill:var(--ce)}}.c.c14{fill:var(--c1);animation-name:c14}@keyframes c15{20.53%{fill:var(--c1)}20.55%,100%{fill:var(--ce)}}.c.c15{fill:var(--c1);animation-name:c15}@keyframes c16{26.63%{fill:var(--c1)}26.65%,100%{fill:var(--ce)}}.c.c16{fill:var(--c1);animation-name:c16}@keyframes c17{25.72%{fill:var(--c1)}25.74%,100%{fill:var(--ce)}}.c.c17{fill:var(--c1);animation-name:c17}@keyframes c18{21.66%{fill:var(--c1)}21.68%,100%{fill:var(--ce)}}.c.c18{fill:var(--c1);animation-name:c18}@keyframes c19{22.11%{fill:var(--c1)}22.13%,100%{fill:var(--ce)}}.c.c19{fill:var(--c1);animation-name:c19}@keyframes c1a{22.34%{fill:var(--c1)}22.36%,100%{fill:var(--ce)}}.c.c1a{fill:var(--c1);animation-name:c1a}@keyframes c1b{65.9%{fill:var(--c3)}65.92%,100%{fill:var(--ce)}}.c.c1b{fill:var(--c3);animation-name:c1b}@keyframes c1c{24.59%{fill:var(--c1)}24.61%,100%{fill:var(--ce)}}.c.c1c{fill:var(--c1);animation-name:c1c}@keyframes c1d{24.14%{fill:var(--c1)}24.16%,100%{fill:var(--ce)}}.c.c1d{fill:var(--c1);animation-name:c1d}@keyframes c1e{63.42%{fill:var(--c2)}63.44%,100%{fill:var(--ce)}}.c.c1e{fill:var(--c2);animation-name:c1e}@keyframes c1f{84.87%{fill:var(--c4)}84.89%,100%{fill:var(--ce)}}.c.c1f{fill:var(--c4);animation-name:c1f}@keyframes c1g{63.87%{fill:var(--c3)}63.89%,100%{fill:var(--ce)}}.c.c1g{fill:var(--c3);animation-name:c1g}@keyframes c1h{63.65%{fill:var(--c3)}63.67%,100%{fill:var(--ce)}}.c.c1h{fill:var(--c3);animation-name:c1h}@keyframes c1i{84.64%{fill:var(--c4)}84.66%,100%{fill:var(--ce)}}.c.c1i{fill:var(--c4);animation-name:c1i}@keyframes c1j{23.24%{fill:var(--c1)}23.26%,100%{fill:var(--ce)}}.c.c1j{fill:var(--c1);animation-name:c1j}@keyframes c1k{61.84%{fill:var(--c2)}61.86%,100%{fill:var(--ce)}}.c.c1k{fill:var(--c2);animation-name:c1k}@keyframes c1l{66.58%{fill:var(--c3)}66.6%,100%{fill:var(--ce)}}.c.c1l{fill:var(--c3);animation-name:c1l}@keyframes c1m{84.19%{fill:var(--c4)}84.21%,100%{fill:var(--ce)}}.c.c1m{fill:var(--c4);animation-name:c1m}@keyframes c1n{83.51%{fill:var(--c3)}83.53%,100%{fill:var(--ce)}}.c.c1n{fill:var(--c3);animation-name:c1n}@keyframes c1o{60.71%{fill:var(--c2)}60.73%,100%{fill:var(--ce)}}.c.c1o{fill:var(--c2);animation-name:c1o}@keyframes c1p{61.39%{fill:var(--c2)}61.41%,100%{fill:var(--ce)}}.c.c1p{fill:var(--c2);animation-name:c1p}@keyframes c1q{85.99%{fill:var(--c4)}86.01%,100%{fill:var(--ce)}}.c.c1q{fill:var(--c4);animation-name:c1q}@keyframes c1r{34.75%{fill:var(--c1)}34.77%,100%{fill:var(--ce)}}.c.c1r{fill:var(--c1);animation-name:c1r}@keyframes c1s{81.93%{fill:var(--c4)}81.95%,100%{fill:var(--ce)}}.c.c1s{fill:var(--c4);animation-name:c1s}@keyframes c1t{81.71%{fill:var(--c2)}81.73%,100%{fill:var(--ce)}}.c.c1t{fill:var(--c2);animation-name:c1t}@keyframes c1u{83.74%{fill:var(--c4)}83.76%,100%{fill:var(--ce)}}.c.c1u{fill:var(--c4);animation-name:c1u}@keyframes c1v{60.94%{fill:var(--c2)}60.96%,100%{fill:var(--ce)}}.c.c1v{fill:var(--c2);animation-name:c1v}.u{transform-origin:0 0;transform:scale(0,1);animation:none linear 44300ms infinite}@keyframes u0{0.67%{transform:scale(0.000,1)}0.69%,0.89%{transform:scale(0.023,1)}0.91%,1.12%{transform:scale(0.045,1)}1.14%,1.57%{transform:scale(0.068,1)}1.59%,2.25%{transform:scale(0.091,1)}2.27%,2.7%{transform:scale(0.114,1)}2.72%,3.83%{transform:scale(0.136,1)}3.85%,4.96%{transform:scale(0.159,1)}4.98%,5.41%{transform:scale(0.182,1)}5.43%,5.63%{transform:scale(0.205,1)}5.65%,6.08%{transform:scale(0.227,1)}6.1%,6.31%{transform:scale(0.250,1)}6.33%,6.76%{transform:scale(0.273,1)}6.78%,7.66%{transform:scale(0.295,1)}7.68%,8.12%{transform:scale(0.318,1)}8.14%,9.7%{transform:scale(0.341,1)}9.72%,10.15%{transform:scale(0.364,1)}10.17%,12.18%{transform:scale(0.386,1)}12.2%,12.63%{transform:scale(0.409,1)}12.65%,13.31%{transform:scale(0.432,1)}13.33%,14.21%{transform:scale(0.455,1)}14.23%,15.57%{transform:scale(0.477,1)}15.59%,17.37%{transform:scale(0.500,1)}17.39%,17.6%{transform:scale(0.523,1)}17.62%,18.05%{transform:scale(0.545,1)}18.07%,18.5%{transform:scale(0.568,1)}18.52%,18.95%{transform:scale(0.591,1)}18.97%,19.4%{transform:scale(0.614,1)}19.42%,19.85%{transform:scale(0.636,1)}19.87%,20.53%{transform:scale(0.659,1)}20.55%,21.66%{transform:scale(0.682,1)}21.68%,22.11%{transform:scale(0.705,1)}22.13%,22.34%{transform:scale(0.727,1)}22.36%,23.24%{transform:scale(0.750,1)}23.26%,24.14%{transform:scale(0.773,1)}24.16%,24.59%{transform:scale(0.795,1)}24.61%,25.72%{transform:scale(0.818,1)}25.74%,26.63%{transform:scale(0.841,1)}26.65%,27.98%{transform:scale(0.864,1)}28%,29.79%{transform:scale(0.886,1)}29.81%,30.24%{transform:scale(0.909,1)}30.26%,34.75%{transform:scale(0.932,1)}34.77%,46.49%{transform:scale(0.955,1)}46.51%,46.94%{transform:scale(0.977,1)}46.96%,100%{transform:scale(1.000,1)}}.u.u0{fill:var(--c1);animation-name:u0;transform-origin:0.0px 0}@keyframes u1{48.97%{transform:scale(0.000,1)}48.99%,50.55%{transform:scale(0.125,1)}50.57%,53.49%{transform:scale(0.250,1)}53.51%,60.71%{transform:scale(0.375,1)}60.73%,60.94%{transform:scale(0.500,1)}60.96%,61.39%{transform:scale(0.625,1)}61.41%,61.84%{transform:scale(0.750,1)}61.86%,63.42%{transform:scale(0.875,1)}63.44%,100%{transform:scale(1.000,1)}}.u.u1{fill:var(--c2);animation-name:u1;transform-origin:548.7px 0}@keyframes u2{63.65%{transform:scale(0.000,1)}63.67%,63.87%{transform:scale(0.200,1)}63.89%,65.9%{transform:scale(0.400,1)}65.92%,66.58%{transform:scale(0.600,1)}66.6%,73.35%{transform:scale(0.800,1)}73.37%,100%{transform:scale(1.000,1)}}.u.u2{fill:var(--c3);animation-name:u2;transform-origin:648.5px 0}@keyframes u3{81.71%{transform:scale(0.000,1)}81.73%,100%{transform:scale(1.000,1)}}.u.u3{fill:var(--c2);animation-name:u3;transform-origin:710.8px 0}@keyframes u4{81.93%{transform:scale(0.000,1)}81.95%,100%{transform:scale(1.000,1)}}.u.u4{fill:var(--c4);animation-name:u4;transform-origin:723.3px 0}@keyframes u5{83.51%{transform:scale(0.000,1)}83.53%,100%{transform:scale(1.000,1)}}.u.u5{fill:var(--c3);animation-name:u5;transform-origin:735.8px 0}@keyframes u6{83.74%{transform:scale(0.000,1)}83.76%,84.19%{transform:scale(0.125,1)}84.21%,84.64%{transform:scale(0.250,1)}84.66%,84.87%{transform:scale(0.375,1)}84.89%,85.99%{transform:scale(0.500,1)}86.01%,92.99%{transform:scale(0.625,1)}93.01%,94.35%{transform:scale(0.750,1)}94.37%,97.51%{transform:scale(0.875,1)}97.53%,100%{transform:scale(1.000,1)}}.u.u6{fill:var(--c4);animation-name:u6;transform-origin:748.2px 0}.s{shape-rendering:geometricPrecision;fill:var(--cs);animation:none linear 44300ms infinite}@keyframes s0{0%,99.77%{transform:translate(0px,-16px)}0.23%{transform:translate(0px,0px)}0.68%{transform:translate(32px,0px)}1.58%{transform:translate(32px,64px)}2.03%{transform:translate(64px,64px)}2.71%{transform:translate(64px,16px)}3.39%{transform:translate(112px,16px)}3.61%{transform:translate(112px,0px)}3.84%{transform:translate(128px,0px)}4.06%{transform:translate(128px,-16px)}4.74%{transform:translate(176px,-16px)}4.97%{transform:translate(176px,0px)}5.19%{transform:translate(160px,0px)}5.42%{transform:translate(160px,16px)}5.64%,50.34%{transform:translate(144px,16px)}5.87%{transform:translate(144px,32px)}6.09%,50.79%{transform:translate(128px,32px)}6.32%{transform:translate(128px,48px)}7.45%{transform:translate(208px,48px)}8.13%{transform:translate(208px,96px)}8.58%{transform:translate(240px,96px)}9.71%{transform:translate(240px,16px)}10.16%{transform:translate(208px,16px)}10.38%{transform:translate(208px,32px)}11.51%{transform:translate(288px,32px)}11.96%{transform:translate(288px,64px)}12.87%{transform:translate(352px,64px)}13.32%{transform:translate(352px,32px)}13.54%{transform:translate(368px,32px)}14%{transform:translate(368px,0px)}14.22%,94.58%{transform:translate(352px,0px)}14.45%{transform:translate(352px,-16px)}15.35%{transform:translate(416px,-16px)}15.58%{transform:translate(416px,0px)}16.93%{transform:translate(512px,0px)}17.38%{transform:translate(512px,32px)}18.06%{transform:translate(560px,32px)}18.28%{transform:translate(560px,16px)}18.51%{transform:translate(544px,16px)}18.96%{transform:translate(544px,48px)}19.19%{transform:translate(560px,48px)}19.41%{transform:translate(560px,64px)}20.32%{transform:translate(624px,64px)}20.54%{transform:translate(624px,80px)}22.8%,33.63%,62.08%{transform:translate(784px,80px)}23.02%{transform:translate(784px,64px)}23.25%,61.63%{transform:translate(800px,64px)}23.48%{transform:translate(800px,48px)}23.93%,62.75%{transform:translate(768px,48px)}24.6%{transform:translate(768px,0px)}25.51%{transform:translate(704px,0px)}25.73%{transform:translate(704px,16px)}25.96%{transform:translate(688px,16px)}26.64%{transform:translate(688px,64px)}26.86%{transform:translate(672px,64px)}27.31%{transform:translate(672px,32px)}29.35%{transform:translate(528px,32px)}29.8%{transform:translate(528px,64px)}30.02%{transform:translate(544px,64px)}30.25%{transform:translate(544px,80px)}34.09%{transform:translate(784px,112px)}34.54%{transform:translate(816px,112px)}34.76%{transform:translate(816px,96px)}34.99%{transform:translate(832px,96px)}35.21%{transform:translate(832px,112px)}45.37%{transform:translate(112px,112px)}45.6%{transform:translate(112px,96px)}46.95%{transform:translate(16px,96px)}47.18%{transform:translate(16px,80px)}48.76%{transform:translate(128px,80px)}48.98%{transform:translate(128px,96px)}49.21%{transform:translate(144px,96px)}50.56%{transform:translate(128px,16px)}53.27%{transform:translate(304px,32px)}53.5%{transform:translate(304px,48px)}60.95%,80.81%{transform:translate(832px,48px)}61.17%,80.59%{transform:translate(832px,64px)}61.85%,66.82%{transform:translate(800px,80px)}62.53%,85.1%{transform:translate(784px,48px)}63.21%{transform:translate(768px,16px)}63.66%,84.42%{transform:translate(800px,16px)}63.88%{transform:translate(800px,0px)}64.56%{transform:translate(752px,0px)}65.91%{transform:translate(752px,96px)}66.59%{transform:translate(800px,96px)}73.36%,92.78%{transform:translate(336px,80px)}73.59%{transform:translate(336px,64px)}81.04%,82.84%{transform:translate(848px,48px)}81.49%{transform:translate(848px,16px)}81.72%,83.97%{transform:translate(832px,16px)}81.94%{transform:translate(832px,0px)}82.17%{transform:translate(848px,0px)}83.3%,85.55%{transform:translate(816px,48px)}83.52%{transform:translate(816px,32px)}83.75%{transform:translate(832px,32px)}84.65%{transform:translate(800px,32px)}84.88%{transform:translate(784px,32px)}86%{transform:translate(816px,80px)}93%{transform:translate(336px,96px)}93.23%{transform:translate(352px,96px)}97.52%{transform:translate(144px,0px)}97.74%{transform:translate(144px,-16px)}}.s.s0{transform:translate(0px,-16px);animation-name:s0}@keyframes s1{0%,99.77%{transform:translate(16px,-16px)}0.23%{transform:translate(0px,-16px)}0.45%{transform:translate(0px,0px)}0.9%{transform:translate(32px,0px)}1.81%{transform:translate(32px,64px)}2.26%{transform:translate(64px,64px)}2.93%{transform:translate(64px,16px)}3.61%{transform:translate(112px,16px)}3.84%{transform:translate(112px,0px)}4.06%{transform:translate(128px,0px)}4.29%{transform:translate(128px,-16px)}4.97%{transform:translate(176px,-16px)}5.19%{transform:translate(176px,0px)}5.42%{transform:translate(160px,0px)}5.64%{transform:translate(160px,16px)}5.87%,50.56%{transform:translate(144px,16px)}6.09%{transform:translate(144px,32px)}6.32%,51.02%{transform:translate(128px,32px)}6.55%{transform:translate(128px,48px)}7.67%{transform:translate(208px,48px)}8.35%{transform:translate(208px,96px)}8.8%{transform:translate(240px,96px)}9.93%{transform:translate(240px,16px)}10.38%{transform:translate(208px,16px)}10.61%{transform:translate(208px,32px)}11.74%{transform:translate(288px,32px)}12.19%{transform:translate(288px,64px)}13.09%{transform:translate(352px,64px)}13.54%{transform:translate(352px,32px)}13.77%{transform:translate(368px,32px)}14.22%{transform:translate(368px,0px)}14.45%,94.81%{transform:translate(352px,0px)}14.67%{transform:translate(352px,-16px)}15.58%{transform:translate(416px,-16px)}15.8%{transform:translate(416px,0px)}17.16%{transform:translate(512px,0px)}17.61%{transform:translate(512px,32px)}18.28%{transform:translate(560px,32px)}18.51%{transform:translate(560px,16px)}18.74%{transform:translate(544px,16px)}19.19%{transform:translate(544px,48px)}19.41%{transform:translate(560px,48px)}19.64%{transform:translate(560px,64px)}20.54%{transform:translate(624px,64px)}20.77%{transform:translate(624px,80px)}23.02%,33.86%,62.3%{transform:translate(784px,80px)}23.25%{transform:translate(784px,64px)}23.48%,61.85%{transform:translate(800px,64px)}23.7%{transform:translate(800px,48px)}24.15%,62.98%{transform:translate(768px,48px)}24.83%{transform:translate(768px,0px)}25.73%{transform:translate(704px,0px)}25.96%{transform:translate(704px,16px)}26.19%{transform:translate(688px,16px)}26.86%{transform:translate(688px,64px)}27.09%{transform:translate(672px,64px)}27.54%{transform:translate(672px,32px)}29.57%{transform:translate(528px,32px)}30.02%{transform:translate(528px,64px)}30.25%{transform:translate(544px,64px)}30.47%{transform:translate(544px,80px)}34.31%{transform:translate(784px,112px)}34.76%{transform:translate(816px,112px)}34.99%{transform:translate(816px,96px)}35.21%{transform:translate(832px,96px)}35.44%{transform:translate(832px,112px)}45.6%{transform:translate(112px,112px)}45.82%{transform:translate(112px,96px)}47.18%{transform:translate(16px,96px)}47.4%{transform:translate(16px,80px)}48.98%{transform:translate(128px,80px)}49.21%{transform:translate(128px,96px)}49.44%{transform:translate(144px,96px)}50.79%{transform:translate(128px,16px)}53.5%{transform:translate(304px,32px)}53.72%{transform:translate(304px,48px)}61.17%,81.04%{transform:translate(832px,48px)}61.4%,80.81%{transform:translate(832px,64px)}62.08%,67.04%{transform:translate(800px,80px)}62.75%,85.33%{transform:translate(784px,48px)}63.43%{transform:translate(768px,16px)}63.88%,84.65%{transform:translate(800px,16px)}64.11%{transform:translate(800px,0px)}64.79%{transform:translate(752px,0px)}66.14%{transform:translate(752px,96px)}66.82%{transform:translate(800px,96px)}73.59%,93%{transform:translate(336px,80px)}73.81%{transform:translate(336px,64px)}81.26%,83.07%{transform:translate(848px,48px)}81.72%{transform:translate(848px,16px)}81.94%,84.2%{transform:translate(832px,16px)}82.17%{transform:translate(832px,0px)}82.39%{transform:translate(848px,0px)}83.52%,85.78%{transform:translate(816px,48px)}83.75%{transform:translate(816px,32px)}83.97%{transform:translate(832px,32px)}84.88%{transform:translate(800px,32px)}85.1%{transform:translate(784px,32px)}86.23%{transform:translate(816px,80px)}93.23%{transform:translate(336px,96px)}93.45%{transform:translate(352px,96px)}97.74%{transform:translate(144px,0px)}97.97%{transform:translate(144px,-16px)}}.s.s1{transform:translate(16px,-16px);animation-name:s1}@keyframes s2{0%,99.77%{transform:translate(32px,-16px)}0.45%{transform:translate(0px,-16px)}0.68%{transform:translate(0px,0px)}1.13%{transform:translate(32px,0px)}2.03%{transform:translate(32px,64px)}2.48%{transform:translate(64px,64px)}3.16%{transform:translate(64px,16px)}3.84%{transform:translate(112px,16px)}4.06%{transform:translate(112px,0px)}4.29%{transform:translate(128px,0px)}4.51%{transform:translate(128px,-16px)}5.19%{transform:translate(176px,-16px)}5.42%{transform:translate(176px,0px)}5.64%{transform:translate(160px,0px)}5.87%{transform:translate(160px,16px)}6.09%,50.79%{transform:translate(144px,16px)}6.32%{transform:translate(144px,32px)}6.55%,51.24%{transform:translate(128px,32px)}6.77%{transform:translate(128px,48px)}7.9%{transform:translate(208px,48px)}8.58%{transform:translate(208px,96px)}9.03%{transform:translate(240px,96px)}10.16%{transform:translate(240px,16px)}10.61%{transform:translate(208px,16px)}10.84%{transform:translate(208px,32px)}11.96%{transform:translate(288px,32px)}12.42%{transform:translate(288px,64px)}13.32%{transform:translate(352px,64px)}13.77%{transform:translate(352px,32px)}14%{transform:translate(368px,32px)}14.45%{transform:translate(368px,0px)}14.67%,95.03%{transform:translate(352px,0px)}14.9%{transform:translate(352px,-16px)}15.8%{transform:translate(416px,-16px)}16.03%{transform:translate(416px,0px)}17.38%{transform:translate(512px,0px)}17.83%{transform:translate(512px,32px)}18.51%{transform:translate(560px,32px)}18.74%{transform:translate(560px,16px)}18.96%{transform:translate(544px,16px)}19.41%{transform:translate(544px,48px)}19.64%{transform:translate(560px,48px)}19.86%{transform:translate(560px,64px)}20.77%{transform:translate(624px,64px)}20.99%{transform:translate(624px,80px)}23.25%,34.09%,62.53%{transform:translate(784px,80px)}23.48%{transform:translate(784px,64px)}23.7%,62.08%{transform:translate(800px,64px)}23.93%{transform:translate(800px,48px)}24.38%,63.21%{transform:translate(768px,48px)}25.06%{transform:translate(768px,0px)}25.96%{transform:translate(704px,0px)}26.19%{transform:translate(704px,16px)}26.41%{transform:translate(688px,16px)}27.09%{transform:translate(688px,64px)}27.31%{transform:translate(672px,64px)}27.77%{transform:translate(672px,32px)}29.8%{transform:translate(528px,32px)}30.25%{transform:translate(528px,64px)}30.47%{transform:translate(544px,64px)}30.7%{transform:translate(544px,80px)}34.54%{transform:translate(784px,112px)}34.99%{transform:translate(816px,112px)}35.21%{transform:translate(816px,96px)}35.44%{transform:translate(832px,96px)}35.67%{transform:translate(832px,112px)}45.82%{transform:translate(112px,112px)}46.05%{transform:translate(112px,96px)}47.4%{transform:translate(16px,96px)}47.63%{transform:translate(16px,80px)}49.21%{transform:translate(128px,80px)}49.44%{transform:translate(128px,96px)}49.66%{transform:translate(144px,96px)}51.02%{transform:translate(128px,16px)}53.72%{transform:translate(304px,32px)}53.95%{transform:translate(304px,48px)}61.4%,81.26%{transform:translate(832px,48px)}61.63%,81.04%{transform:translate(832px,64px)}62.3%,67.27%{transform:translate(800px,80px)}62.98%,85.55%{transform:translate(784px,48px)}63.66%{transform:translate(768px,16px)}64.11%,84.88%{transform:translate(800px,16px)}64.33%{transform:translate(800px,0px)}65.01%{transform:translate(752px,0px)}66.37%{transform:translate(752px,96px)}67.04%{transform:translate(800px,96px)}73.81%,93.23%{transform:translate(336px,80px)}74.04%{transform:translate(336px,64px)}81.49%,83.3%{transform:translate(848px,48px)}81.94%{transform:translate(848px,16px)}82.17%,84.42%{transform:translate(832px,16px)}82.39%{transform:translate(832px,0px)}82.62%{transform:translate(848px,0px)}83.75%,86%{transform:translate(816px,48px)}83.97%{transform:translate(816px,32px)}84.2%{transform:translate(832px,32px)}85.1%{transform:translate(800px,32px)}85.33%{transform:translate(784px,32px)}86.46%{transform:translate(816px,80px)}93.45%{transform:translate(336px,96px)}93.68%{transform:translate(352px,96px)}97.97%{transform:translate(144px,0px)}98.19%{transform:translate(144px,-16px)}}.s.s2{transform:translate(32px,-16px);animation-name:s2}@keyframes s3{0%,99.77%{transform:translate(48px,-16px)}0.68%{transform:translate(0px,-16px)}0.9%{transform:translate(0px,0px)}1.35%{transform:translate(32px,0px)}2.26%{transform:translate(32px,64px)}2.71%{transform:translate(64px,64px)}3.39%{transform:translate(64px,16px)}4.06%{transform:translate(112px,16px)}4.29%{transform:translate(112px,0px)}4.51%{transform:translate(128px,0px)}4.74%{transform:translate(128px,-16px)}5.42%{transform:translate(176px,-16px)}5.64%{transform:translate(176px,0px)}5.87%{transform:translate(160px,0px)}6.09%{transform:translate(160px,16px)}6.32%,51.02%{transform:translate(144px,16px)}6.55%{transform:translate(144px,32px)}6.77%,51.47%{transform:translate(128px,32px)}7%{transform:translate(128px,48px)}8.13%{transform:translate(208px,48px)}8.8%{transform:translate(208px,96px)}9.26%{transform:translate(240px,96px)}10.38%{transform:translate(240px,16px)}10.84%{transform:translate(208px,16px)}11.06%{transform:translate(208px,32px)}12.19%{transform:translate(288px,32px)}12.64%{transform:translate(288px,64px)}13.54%{transform:translate(352px,64px)}14%{transform:translate(352px,32px)}14.22%{transform:translate(368px,32px)}14.67%{transform:translate(368px,0px)}14.9%,95.26%{transform:translate(352px,0px)}15.12%{transform:translate(352px,-16px)}16.03%{transform:translate(416px,-16px)}16.25%{transform:translate(416px,0px)}17.61%{transform:translate(512px,0px)}18.06%{transform:translate(512px,32px)}18.74%{transform:translate(560px,32px)}18.96%{transform:translate(560px,16px)}19.19%{transform:translate(544px,16px)}19.64%{transform:translate(544px,48px)}19.86%{transform:translate(560px,48px)}20.09%{transform:translate(560px,64px)}20.99%{transform:translate(624px,64px)}21.22%{transform:translate(624px,80px)}23.48%,34.31%,62.75%{transform:translate(784px,80px)}23.7%{transform:translate(784px,64px)}23.93%,62.3%{transform:translate(800px,64px)}24.15%{transform:translate(800px,48px)}24.6%,63.43%{transform:translate(768px,48px)}25.28%{transform:translate(768px,0px)}26.19%{transform:translate(704px,0px)}26.41%{transform:translate(704px,16px)}26.64%{transform:translate(688px,16px)}27.31%{transform:translate(688px,64px)}27.54%{transform:translate(672px,64px)}27.99%{transform:translate(672px,32px)}30.02%{transform:translate(528px,32px)}30.47%{transform:translate(528px,64px)}30.7%{transform:translate(544px,64px)}30.93%{transform:translate(544px,80px)}34.76%{transform:translate(784px,112px)}35.21%{transform:translate(816px,112px)}35.44%{transform:translate(816px,96px)}35.67%{transform:translate(832px,96px)}35.89%{transform:translate(832px,112px)}46.05%{transform:translate(112px,112px)}46.28%{transform:translate(112px,96px)}47.63%{transform:translate(16px,96px)}47.86%{transform:translate(16px,80px)}49.44%{transform:translate(128px,80px)}49.66%{transform:translate(128px,96px)}49.89%{transform:translate(144px,96px)}51.24%{transform:translate(128px,16px)}53.95%{transform:translate(304px,32px)}54.18%{transform:translate(304px,48px)}61.63%,81.49%{transform:translate(832px,48px)}61.85%,81.26%{transform:translate(832px,64px)}62.53%,67.49%{transform:translate(800px,80px)}63.21%,85.78%{transform:translate(784px,48px)}63.88%{transform:translate(768px,16px)}64.33%,85.1%{transform:translate(800px,16px)}64.56%{transform:translate(800px,0px)}65.24%{transform:translate(752px,0px)}66.59%{transform:translate(752px,96px)}67.27%{transform:translate(800px,96px)}74.04%,93.45%{transform:translate(336px,80px)}74.27%{transform:translate(336px,64px)}81.72%,83.52%{transform:translate(848px,48px)}82.17%{transform:translate(848px,16px)}82.39%,84.65%{transform:translate(832px,16px)}82.62%{transform:translate(832px,0px)}82.84%{transform:translate(848px,0px)}83.97%,86.23%{transform:translate(816px,48px)}84.2%{transform:translate(816px,32px)}84.42%{transform:translate(832px,32px)}85.33%{transform:translate(800px,32px)}85.55%{transform:translate(784px,32px)}86.68%{transform:translate(816px,80px)}93.68%{transform:translate(336px,96px)}93.91%{transform:translate(352px,96px)}98.19%{transform:translate(144px,0px)}98.42%{transform:translate(144px,-16px)}}.s.s3{transform:translate(48px,-16px);animation-name:s3}@media (prefers-reduced-motion: reduce){.s,.c,.u{animation:none!important}}</style><rect class="c" x="2" y="2" rx="2" ry="2"/><rect class="c" x="2" y="18" rx="2" ry="2"/><rect class="c" x="2" y="34" rx="2" ry="2"/><rect class="c" x="2" y="50" rx="2" ry="2"/><rect class="c" x="2" y="66" rx="2" ry="2"/><rect class="c" x="2" y="82" rx="2" ry="2"/><rect class="c" x="2" y="98" rx="2" ry="2"/><rect class="c" x="18" y="2" rx="2" ry="2"/><rect class="c" x="18" y="18" rx="2" ry="2"/><rect class="c" x="18" y="34" rx="2" ry="2"/><rect class="c" x="18" y="50" rx="2" ry="2"/><rect class="c" x="18" y="66" rx="2" ry="2"/><rect class="c" x="18" y="82" rx="2" ry="2"/><rect class="c c0" x="18" y="98" rx="2" ry="2"/><rect class="c c1" x="34" y="2" rx="2" ry="2"/><rect class="c c2" x="34" y="18" rx="2" ry="2"/><rect class="c c3" x="34" y="34" rx="2" ry="2"/><rect class="c" x="34" y="50" rx="2" ry="2"/><rect class="c c4" x="34" y="66" rx="2" ry="2"/><rect class="c" x="34" y="82" rx="2" ry="2"/><rect class="c" x="34" y="98" rx="2" ry="2"/><rect class="c" x="50" y="2" rx="2" ry="2"/><rect class="c" x="50" y="18" rx="2" ry="2"/><rect class="c" x="50" y="34" rx="2" ry="2"/><rect class="c" x="50" y="50" rx="2" ry="2"/><rect class="c" x="50" y="66" rx="2" ry="2"/><rect class="c" x="50" y="82" rx="2" ry="2"/><rect class="c c5" x="50" y="98" rx="2" ry="2"/><rect class="c" x="66" y="2" rx="2" ry="2"/><rect class="c c6" x="66" y="18" rx="2" ry="2"/><rect class="c" x="66" y="34" rx="2" ry="2"/><rect class="c c7" x="66" y="50" rx="2" ry="2"/><rect class="c" x="66" y="66" rx="2" ry="2"/><rect class="c" x="66" y="82" rx="2" ry="2"/><rect class="c" x="66" y="98" rx="2" ry="2"/><rect class="c" x="82" y="2" rx="2" ry="2"/><rect class="c" x="82" y="18" rx="2" ry="2"/><rect class="c" x="82" y="34" rx="2" ry="2"/><rect class="c" x="82" y="50" rx="2" ry="2"/><rect class="c" x="82" y="66" rx="2" ry="2"/><rect class="c" x="82" y="82" rx="2" ry="2"/><rect class="c" x="82" y="98" rx="2" ry="2"/><rect class="c" x="98" y="2" rx="2" ry="2"/><rect class="c" x="98" y="18" rx="2" ry="2"/><rect class="c" x="98" y="34" rx="2" ry="2"/><rect class="c" x="98" y="50" rx="2" ry="2"/><rect class="c" x="98" y="66" rx="2" ry="2"/><rect class="c" x="98" y="82" rx="2" ry="2"/><rect class="c" x="98" y="98" rx="2" ry="2"/><rect class="c" x="114" y="2" rx="2" ry="2"/><rect class="c" x="114" y="18" rx="2" ry="2"/><rect class="c" x="114" y="34" rx="2" ry="2"/><rect class="c" x="114" y="50" rx="2" ry="2"/><rect class="c" x="114" y="66" rx="2" ry="2"/><rect class="c" x="114" y="82" rx="2" ry="2"/><rect class="c" x="114" y="98" rx="2" ry="2"/><rect class="c c8" x="130" y="2" rx="2" ry="2"/><rect class="c c9" x="130" y="18" rx="2" ry="2"/><rect class="c ca" x="130" y="34" rx="2" ry="2"/><rect class="c cb" x="130" y="50" rx="2" ry="2"/><rect class="c" x="130" y="66" rx="2" ry="2"/><rect class="c" x="130" y="82" rx="2" ry="2"/><rect class="c cc" x="130" y="98" rx="2" ry="2"/><rect class="c cd" x="146" y="2" rx="2" ry="2"/><rect class="c ce" x="146" y="18" rx="2" ry="2"/><rect class="c" x="146" y="34" rx="2" ry="2"/><rect class="c" x="146" y="50" rx="2" ry="2"/><rect class="c" x="146" y="66" rx="2" ry="2"/><rect class="c" x="146" y="82" rx="2" ry="2"/><rect class="c" x="146" y="98" rx="2" ry="2"/><rect class="c" x="162" y="2" rx="2" ry="2"/><rect class="c cf" x="162" y="18" rx="2" ry="2"/><rect class="c" x="162" y="34" rx="2" ry="2"/><rect class="c cg" x="162" y="50" rx="2" ry="2"/><rect class="c" x="162" y="66" rx="2" ry="2"/><rect class="c" x="162" y="82" rx="2" ry="2"/><rect class="c" x="162" y="98" rx="2" ry="2"/><rect class="c ch" x="178" y="2" rx="2" ry="2"/><rect class="c" x="178" y="18" rx="2" ry="2"/><rect class="c" x="178" y="34" rx="2" ry="2"/><rect class="c" x="178" y="50" rx="2" ry="2"/><rect class="c" x="178" y="66" rx="2" ry="2"/><rect class="c" x="178" y="82" rx="2" ry="2"/><rect class="c" x="178" y="98" rx="2" ry="2"/><rect class="c" x="194" y="2" rx="2" ry="2"/><rect class="c" x="194" y="18" rx="2" ry="2"/><rect class="c" x="194" y="34" rx="2" ry="2"/><rect class="c" x="194" y="50" rx="2" ry="2"/><rect class="c" x="194" y="66" rx="2" ry="2"/><rect class="c" x="194" y="82" rx="2" ry="2"/><rect class="c" x="194" y="98" rx="2" ry="2"/><rect class="c" x="210" y="2" rx="2" ry="2"/><rect class="c ci" x="210" y="18" rx="2" ry="2"/><rect class="c" x="210" y="34" rx="2" ry="2"/><rect class="c" x="210" y="50" rx="2" ry="2"/><rect class="c cj" x="210" y="66" rx="2" ry="2"/><rect class="c" x="210" y="82" rx="2" ry="2"/><rect class="c ck" x="210" y="98" rx="2" ry="2"/><rect class="c" x="226" y="2" rx="2" ry="2"/><rect class="c" x="226" y="18" rx="2" ry="2"/><rect class="c" x="226" y="34" rx="2" ry="2"/><rect class="c" x="226" y="50" rx="2" ry="2"/><rect class="c" x="226" y="66" rx="2" ry="2"/><rect class="c" x="226" y="82" rx="2" ry="2"/><rect class="c" x="226" y="98" rx="2" ry="2"/><rect class="c" x="242" y="2" rx="2" ry="2"/><rect class="c cl" x="242" y="18" rx="2" ry="2"/><rect class="c" x="242" y="34" rx="2" ry="2"/><rect class="c" x="242" y="50" rx="2" ry="2"/><rect class="c" x="242" y="66" rx="2" ry="2"/><rect class="c" x="242" y="82" rx="2" ry="2"/><rect class="c" x="242" y="98" rx="2" ry="2"/><rect class="c" x="258" y="2" rx="2" ry="2"/><rect class="c" x="258" y="18" rx="2" ry="2"/><rect class="c" x="258" y="34" rx="2" ry="2"/><rect class="c" x="258" y="50" rx="2" ry="2"/><rect class="c" x="258" y="66" rx="2" ry="2"/><rect class="c" x="258" y="82" rx="2" ry="2"/><rect class="c" x="258" y="98" rx="2" ry="2"/><rect class="c" x="274" y="2" rx="2" ry="2"/><rect class="c" x="274" y="18" rx="2" ry="2"/><rect class="c" x="274" y="34" rx="2" ry="2"/><rect class="c" x="274" y="50" rx="2" ry="2"/><rect class="c" x="274" y="66" rx="2" ry="2"/><rect class="c" x="274" y="82" rx="2" ry="2"/><rect class="c" x="274" y="98" rx="2" ry="2"/><rect class="c" x="290" y="2" rx="2" ry="2"/><rect class="c" x="290" y="18" rx="2" ry="2"/><rect class="c" x="290" y="34" rx="2" ry="2"/><rect class="c" x="290" y="50" rx="2" ry="2"/><rect class="c" x="290" y="66" rx="2" ry="2"/><rect class="c" x="290" y="82" rx="2" ry="2"/><rect class="c" x="290" y="98" rx="2" ry="2"/><rect class="c" x="306" y="2" rx="2" ry="2"/><rect class="c" x="306" y="18" rx="2" ry="2"/><rect class="c" x="306" y="34" rx="2" ry="2"/><rect class="c cm" x="306" y="50" rx="2" ry="2"/><rect class="c cn" x="306" y="66" rx="2" ry="2"/><rect class="c" x="306" y="82" rx="2" ry="2"/><rect class="c" x="306" y="98" rx="2" ry="2"/><rect class="c" x="322" y="2" rx="2" ry="2"/><rect class="c" x="322" y="18" rx="2" ry="2"/><rect class="c" x="322" y="34" rx="2" ry="2"/><rect class="c" x="322" y="50" rx="2" ry="2"/><rect class="c" x="322" y="66" rx="2" ry="2"/><rect class="c" x="322" y="82" rx="2" ry="2"/><rect class="c" x="322" y="98" rx="2" ry="2"/><rect class="c" x="338" y="2" rx="2" ry="2"/><rect class="c" x="338" y="18" rx="2" ry="2"/><rect class="c" x="338" y="34" rx="2" ry="2"/><rect class="c" x="338" y="50" rx="2" ry="2"/><rect class="c co" x="338" y="66" rx="2" ry="2"/><rect class="c cp" x="338" y="82" rx="2" ry="2"/><rect class="c cq" x="338" y="98" rx="2" ry="2"/><rect class="c cr" x="354" y="2" rx="2" ry="2"/><rect class="c cs" x="354" y="18" rx="2" ry="2"/><rect class="c ct" x="354" y="34" rx="2" ry="2"/><rect class="c" x="354" y="50" rx="2" ry="2"/><rect class="c" x="354" y="66" rx="2" ry="2"/><rect class="c" x="354" y="82" rx="2" ry="2"/><rect class="c" x="354" y="98" rx="2" ry="2"/><rect class="c" x="370" y="2" rx="2" ry="2"/><rect class="c" x="370" y="18" rx="2" ry="2"/><rect class="c" x="370" y="34" rx="2" ry="2"/><rect class="c" x="370" y="50" rx="2" ry="2"/><rect class="c" x="370" y="66" rx="2" ry="2"/><rect class="c" x="370" y="82" rx="2" ry="2"/><rect class="c" x="370" y="98" rx="2" ry="2"/><rect class="c" x="386" y="2" rx="2" ry="2"/><rect class="c" x="386" y="18" rx="2" ry="2"/><rect class="c" x="386" y="34" rx="2" ry="2"/><rect class="c" x="386" y="50" rx="2" ry="2"/><rect class="c" x="386" y="66" rx="2" ry="2"/><rect class="c" x="386" y="82" rx="2" ry="2"/><rect class="c" x="386" y="98" rx="2" ry="2"/><rect class="c" x="402" y="2" rx="2" ry="2"/><rect class="c" x="402" y="18" rx="2" ry="2"/><rect class="c" x="402" y="34" rx="2" ry="2"/><rect class="c" x="402" y="50" rx="2" ry="2"/><rect class="c" x="402" y="66" rx="2" ry="2"/><rect class="c" x="402" y="82" rx="2" ry="2"/><rect class="c" x="402" y="98" rx="2" ry="2"/><rect class="c cu" x="418" y="2" rx="2" ry="2"/><rect class="c" x="418" y="18" rx="2" ry="2"/><rect class="c" x="418" y="34" rx="2" ry="2"/><rect class="c" x="418" y="50" rx="2" ry="2"/><rect class="c" x="418" y="66" rx="2" ry="2"/><rect class="c" x="418" y="82" rx="2" ry="2"/><rect class="c" x="418" y="98" rx="2" ry="2"/><rect class="c" x="434" y="2" rx="2" ry="2"/><rect class="c" x="434" y="18" rx="2" ry="2"/><rect class="c" x="434" y="34" rx="2" ry="2"/><rect class="c" x="434" y="50" rx="2" ry="2"/><rect class="c" x="434" y="66" rx="2" ry="2"/><rect class="c" x="434" y="82" rx="2" ry="2"/><rect class="c" x="434" y="98" rx="2" ry="2"/><rect class="c" x="450" y="2" rx="2" ry="2"/><rect class="c" x="450" y="18" rx="2" ry="2"/><rect class="c" x="450" y="34" rx="2" ry="2"/><rect class="c" x="450" y="50" rx="2" ry="2"/><rect class="c" x="450" y="66" rx="2" ry="2"/><rect class="c" x="450" y="82" rx="2" ry="2"/><rect class="c" x="450" y="98" rx="2" ry="2"/><rect class="c" x="466" y="2" rx="2" ry="2"/><rect class="c" x="466" y="18" rx="2" ry="2"/><rect class="c" x="466" y="34" rx="2" ry="2"/><rect class="c" x="466" y="50" rx="2" ry="2"/><rect class="c" x="466" y="66" rx="2" ry="2"/><rect class="c" x="466" y="82" rx="2" ry="2"/><rect class="c" x="466" y="98" rx="2" ry="2"/><rect class="c" x="482" y="2" rx="2" ry="2"/><rect class="c" x="482" y="18" rx="2" ry="2"/><rect class="c" x="482" y="34" rx="2" ry="2"/><rect class="c" x="482" y="50" rx="2" ry="2"/><rect class="c" x="482" y="66" rx="2" ry="2"/><rect class="c" x="482" y="82" rx="2" ry="2"/><rect class="c" x="482" y="98" rx="2" ry="2"/><rect class="c" x="498" y="2" rx="2" ry="2"/><rect class="c" x="498" y="18" rx="2" ry="2"/><rect class="c" x="498" y="34" rx="2" ry="2"/><rect class="c" x="498" y="50" rx="2" ry="2"/><rect class="c" x="498" y="66" rx="2" ry="2"/><rect class="c" x="498" y="82" rx="2" ry="2"/><rect class="c" x="498" y="98" rx="2" ry="2"/><rect class="c" x="514" y="2" rx="2" ry="2"/><rect class="c" x="514" y="18" rx="2" ry="2"/><rect class="c cv" x="514" y="34" rx="2" ry="2"/><rect class="c" x="514" y="50" rx="2" ry="2"/><rect class="c" x="514" y="66" rx="2" ry="2"/><rect class="c" x="514" y="82" rx="2" ry="2"/><rect class="c" x="514" y="98" rx="2" ry="2"/><rect class="c" x="530" y="2" rx="2" ry="2"/><rect class="c" x="530" y="18" rx="2" ry="2"/><rect class="c cw" x="530" y="34" rx="2" ry="2"/><rect class="c" x="530" y="50" rx="2" ry="2"/><rect class="c cx" x="530" y="66" rx="2" ry="2"/><rect class="c" x="530" y="82" rx="2" ry="2"/><rect class="c" x="530" y="98" rx="2" ry="2"/><rect class="c" x="546" y="2" rx="2" ry="2"/><rect class="c cy" x="546" y="18" rx="2" ry="2"/><rect class="c" x="546" y="34" rx="2" ry="2"/><rect class="c cz" x="546" y="50" rx="2" ry="2"/><rect class="c" x="546" y="66" rx="2" ry="2"/><rect class="c c10" x="546" y="82" rx="2" ry="2"/><rect class="c" x="546" y="98" rx="2" ry="2"/><rect class="c" x="562" y="2" rx="2" ry="2"/><rect class="c" x="562" y="18" rx="2" ry="2"/><rect class="c c11" x="562" y="34" rx="2" ry="2"/><rect class="c" x="562" y="50" rx="2" ry="2"/><rect class="c c12" x="562" y="66" rx="2" ry="2"/><rect class="c" x="562" y="82" rx="2" ry="2"/><rect class="c" x="562" y="98" rx="2" ry="2"/><rect class="c" x="578" y="2" rx="2" ry="2"/><rect class="c" x="578" y="18" rx="2" ry="2"/><rect class="c" x="578" y="34" rx="2" ry="2"/><rect class="c" x="578" y="50" rx="2" ry="2"/><rect class="c" x="578" y="66" rx="2" ry="2"/><rect class="c" x="578" y="82" rx="2" ry="2"/><rect class="c" x="578" y="98" rx="2" ry="2"/><rect class="c" x="594" y="2" rx="2" ry="2"/><rect class="c" x="594" y="18" rx="2" ry="2"/><rect class="c" x="594" y="34" rx="2" ry="2"/><rect class="c" x="594" y="50" rx="2" ry="2"/><rect class="c c13" x="594" y="66" rx="2" ry="2"/><rect class="c" x="594" y="82" rx="2" ry="2"/><rect class="c" x="594" y="98" rx="2" ry="2"/><rect class="c" x="610" y="2" rx="2" ry="2"/><rect class="c" x="610" y="18" rx="2" ry="2"/><rect class="c" x="610" y="34" rx="2" ry="2"/><rect class="c" x="610" y="50" rx="2" ry="2"/><rect class="c" x="610" y="66" rx="2" ry="2"/><rect class="c" x="610" y="82" rx="2" ry="2"/><rect class="c" x="610" y="98" rx="2" ry="2"/><rect class="c" x="626" y="2" rx="2" ry="2"/><rect class="c" x="626" y="18" rx="2" ry="2"/><rect class="c c14" x="626" y="34" rx="2" ry="2"/><rect class="c" x="626" y="50" rx="2" ry="2"/><rect class="c" x="626" y="66" rx="2" ry="2"/><rect class="c c15" x="626" y="82" rx="2" ry="2"/><rect class="c" x="626" y="98" rx="2" ry="2"/><rect class="c" x="642" y="2" rx="2" ry="2"/><rect class="c" x="642" y="18" rx="2" ry="2"/><rect class="c" x="642" y="34" rx="2" ry="2"/><rect class="c" x="642" y="50" rx="2" ry="2"/><rect class="c" x="642" y="66" rx="2" ry="2"/><rect class="c" x="642" y="82" rx="2" ry="2"/><rect class="c" x="642" y="98" rx="2" ry="2"/><rect class="c" x="658" y="2" rx="2" ry="2"/><rect class="c" x="658" y="18" rx="2" ry="2"/><rect class="c" x="658" y="34" rx="2" ry="2"/><rect class="c" x="658" y="50" rx="2" ry="2"/><rect class="c" x="658" y="66" rx="2" ry="2"/><rect class="c" x="658" y="82" rx="2" ry="2"/><rect class="c" x="658" y="98" rx="2" ry="2"/><rect class="c" x="674" y="2" rx="2" ry="2"/><rect class="c" x="674" y="18" rx="2" ry="2"/><rect class="c" x="674" y="34" rx="2" ry="2"/><rect class="c" x="674" y="50" rx="2" ry="2"/><rect class="c" x="674" y="66" rx="2" ry="2"/><rect class="c" x="674" y="82" rx="2" ry="2"/><rect class="c" x="674" y="98" rx="2" ry="2"/><rect class="c" x="690" y="2" rx="2" ry="2"/><rect class="c" x="690" y="18" rx="2" ry="2"/><rect class="c" x="690" y="34" rx="2" ry="2"/><rect class="c" x="690" y="50" rx="2" ry="2"/><rect class="c c16" x="690" y="66" rx="2" ry="2"/><rect class="c" x="690" y="82" rx="2" ry="2"/><rect class="c" x="690" y="98" rx="2" ry="2"/><rect class="c" x="706" y="2" rx="2" ry="2"/><rect class="c c17" x="706" y="18" rx="2" ry="2"/><rect class="c" x="706" y="34" rx="2" ry="2"/><rect class="c" x="706" y="50" rx="2" ry="2"/><rect class="c" x="706" y="66" rx="2" ry="2"/><rect class="c c18" x="706" y="82" rx="2" ry="2"/><rect class="c" x="706" y="98" rx="2" ry="2"/><rect class="c" x="722" y="2" rx="2" ry="2"/><rect class="c" x="722" y="18" rx="2" ry="2"/><rect class="c" x="722" y="34" rx="2" ry="2"/><rect class="c" x="722" y="50" rx="2" ry="2"/><rect class="c" x="722" y="66" rx="2" ry="2"/><rect class="c" x="722" y="82" rx="2" ry="2"/><rect class="c" x="722" y="98" rx="2" ry="2"/><rect class="c" x="738" y="2" rx="2" ry="2"/><rect class="c" x="738" y="18" rx="2" ry="2"/><rect class="c" x="738" y="34" rx="2" ry="2"/><rect class="c" x="738" y="50" rx="2" ry="2"/><rect class="c" x="738" y="66" rx="2" ry="2"/><rect class="c c19" x="738" y="82" rx="2" ry="2"/><rect class="c" x="738" y="98" rx="2" ry="2"/><rect class="c" x="754" y="2" rx="2" ry="2"/><rect class="c" x="754" y="18" rx="2" ry="2"/><rect class="c" x="754" y="34" rx="2" ry="2"/><rect class="c" x="754" y="50" rx="2" ry="2"/><rect class="c" x="754" y="66" rx="2" ry="2"/><rect class="c c1a" x="754" y="82" rx="2" ry="2"/><rect class="c c1b" x="754" y="98" rx="2" ry="2"/><rect class="c c1c" x="770" y="2" rx="2" ry="2"/><rect class="c" x="770" y="18" rx="2" ry="2"/><rect class="c c1d" x="770" y="34" rx="2" ry="2"/><rect class="c" x="770" y="50" rx="2" ry="2"/><rect class="c" x="770" y="66" rx="2" ry="2"/><rect class="c" x="770" y="82" rx="2" ry="2"/><rect class="c" x="770" y="98" rx="2" ry="2"/><rect class="c" x="786" y="2" rx="2" ry="2"/><rect class="c c1e" x="786" y="18" rx="2" ry="2"/><rect class="c c1f" x="786" y="34" rx="2" ry="2"/><rect class="c" x="786" y="50" rx="2" ry="2"/><rect class="c" x="786" y="66" rx="2" ry="2"/><rect class="c" x="786" y="82" rx="2" ry="2"/><rect class="c" x="786" y="98" rx="2" ry="2"/><rect class="c c1g" x="802" y="2" rx="2" ry="2"/><rect class="c c1h" x="802" y="18" rx="2" ry="2"/><rect class="c c1i" x="802" y="34" rx="2" ry="2"/><rect class="c" x="802" y="50" rx="2" ry="2"/><rect class="c c1j" x="802" y="66" rx="2" ry="2"/><rect class="c c1k" x="802" y="82" rx="2" ry="2"/><rect class="c c1l" x="802" y="98" rx="2" ry="2"/><rect class="c" x="818" y="2" rx="2" ry="2"/><rect class="c c1m" x="818" y="18" rx="2" ry="2"/><rect class="c c1n" x="818" y="34" rx="2" ry="2"/><rect class="c c1o" x="818" y="50" rx="2" ry="2"/><rect class="c c1p" x="818" y="66" rx="2" ry="2"/><rect class="c c1q" x="818" y="82" rx="2" ry="2"/><rect class="c c1r" x="818" y="98" rx="2" ry="2"/><rect class="c c1s" x="834" y="2" rx="2" ry="2"/><rect class="c c1t" x="834" y="18" rx="2" ry="2"/><rect class="c c1u" x="834" y="34" rx="2" ry="2"/><rect class="c c1v" x="834" y="50" rx="2" ry="2"/><rect class="u u0" height="12" width="549.3" x="0.0" y="144"/><rect class="u u1" height="12" width="100.4" x="548.7" y="144"/><rect class="u u2" height="12" width="63.0" x="648.5" y="144"/><rect class="u u3" height="12" width="13.1" x="710.8" y="144"/><rect class="u u4" height="12" width="13.1" x="723.3" y="144"/><rect class="u u5" height="12" width="13.1" x="735.8" y="144"/><rect class="u u6" height="12" width="100.4" x="748.2" y="144"/><rect class="s s0" x="0.8" y="0.8" width="14.4" height="14.4" rx="4.5" ry="4.5"/><rect class="s s1" x="1.8" y="1.8" width="12.3" height="12.3" rx="4.1" ry="4.1"/><rect class="s s2" x="2.6" y="2.6" width="10.8" height="10.8" rx="3.6" ry="3.6"/><rect class="s s3" x="3.0" y="3.0" width="9.9" height="9.9" rx="3.3" ry="3.3"/></svg>
</svg>
